<svg xmlns="http://www.w3.org/2000/svg" version="1.1" xmlns:xlink="http://www.w3.org/1999/xlink" xmlns:svgjs="http://svgjs.dev/svgjs" width="1500" height="1500" viewBox="0 0 1500 1500"><rect width="1500" height="1500" fill="#ffffff"></rect><g transform="matrix(0.6666666666666666,0,0,0.6666666666666666,249.39393939393938,438.5856950067477)"><svg viewBox="0 0 396 247" data-background-color="#ffffff" preserveAspectRatio="xMidYMid meet" height="935" width="1500" xmlns="http://www.w3.org/2000/svg" xmlns:xlink="http://www.w3.org/1999/xlink"><g id="tight-bounds" transform="matrix(1,0,0,1,0.2400000000000091,-0.09999999999999432)"><svg viewBox="0 0 395.52 247.2" height="247.2" width="395.52"><g><svg></svg></g><g><svg viewBox="0 0 395.52 247.2" height="247.2" width="395.52"><mask id="4ecfc22b-bca7-4a8f-83f2-a8ebc0140456"><rect width="395.52" height="247.2" fill="white"></rect><g transform="matrix(1,0,0,1,38.60873684210526,37.08)" id="clone"><svg viewBox="0 0 318.30252631578946 173.04" height="173.04" width="318.30252631578946"><g><svg viewBox="0 0 318.3025263157895 173.04000000000002" height="173.04" width="318.30252631578946"><g><svg viewBox="0 0 318.3025263157895 173.04000000000002" height="173.04000000000002" width="318.3025263157895"><g id="SvgjsG1513"><svg viewBox="0 0 318.3025263157895 173.04000000000002" height="173.04000000000002" width="318.3025263157895" id="SvgjsSvg1512"><g><svg viewBox="0 0 318.3025263157895 173.04000000000002" height="173.04000000000002" width="318.3025263157895"><g transform="matrix(1,0,0,1,0,0)"><svg width="318.3025263157895" viewBox="0.4999999999999991 -38 145.79999999999998 79" height="173.04000000000002" data-palette-color="#0ebbb2"><svg></svg><svg></svg><g class="wordmark-text-0" data-fill-palette-color="primary" id="SvgjsG1511"><path d="M8.2-30.6v30.6h-4.7v-35h12.35c4.133 0 7.217 0.923 9.25 2.77 2.033 1.853 3.05 4.763 3.05 8.73v0 23.5h-4.7v-24.15c0-2.267-0.69-3.91-2.07-4.93-1.387-1.013-3.213-1.52-5.48-1.52v0zM54.3-24v24h-8.65c-3.7 0-6.35-0.55-7.95-1.65v0c-1.433-0.967-2.34-2.127-2.72-3.48-0.387-1.347-0.58-3.12-0.58-5.32v0-13.55h4.4v13.5c0 0.6 0.017 1.11 0.05 1.53 0.033 0.413 0.15 0.943 0.35 1.59 0.2 0.653 0.483 1.187 0.85 1.6 0.367 0.42 0.9 0.79 1.6 1.11 0.7 0.313 1.55 0.47 2.55 0.47v0h5.7v-19.8zM60.8 0v-24h22.05c2.367 0 4.25 0.45 5.65 1.35v0c1.433 0.9 2.377 2.067 2.83 3.5 0.447 1.433 0.67 3.15 0.67 5.15v0 14h-4.4v-14c0-2.6-0.783-4.317-2.35-5.15v0c-0.8-0.433-2.417-0.65-4.85-0.65v0h-2.05v19.8h-4.4v-19.8h-8.75v19.8zM111.35-14.1v0 4.5c-1.267-0.967-2.817-1.45-4.65-1.45v0c-1.567 0-2.783 0.307-3.65 0.92-0.867 0.62-1.3 1.497-1.3 2.63v0c0 2.2 1.633 3.3 4.9 3.3v0h6.6v-9.55c0-4.033-1.967-6.05-5.9-6.05v0h-8v-4.2h8.25c3.233 0 5.717 0.8 7.45 2.4 1.733 1.6 2.6 3.9 2.6 6.9v0 14.7h-11.15c-2.833 0-5.083-0.633-6.75-1.9-1.667-1.267-2.5-3.117-2.5-5.55 0-2.433 0.883-4.283 2.65-5.55 1.767-1.267 3.983-1.9 6.65-1.9v0c1.5 0 3.1 0.267 4.8 0.8zM123.4 0v-24h8.65c3.7 0 6.35 0.55 7.95 1.65v0c1.433 0.967 2.343 2.123 2.73 3.47 0.38 1.353 0.57 3.13 0.57 5.33v0 13.55h-4.4v-13.5c0-0.6-0.017-1.11-0.05-1.53-0.033-0.413-0.15-0.947-0.35-1.6-0.2-0.647-0.483-1.18-0.85-1.6-0.367-0.413-0.9-0.78-1.6-1.1-0.7-0.313-1.55-0.47-2.55-0.47v0h-5.7v19.8z" fill="black" fill-rule="nonzero" stroke="black" stroke-width="5" stroke-linecap="butt" stroke-linejoin="round" stroke-miterlimit="10" stroke-dasharray="" stroke-dashoffset="0" font-family="none" font-weight="none" font-size="none" text-anchor="none" style="mix-blend-mode: normal" opacity="1"></path><path d="M24.9 31.75v0 6.25h-4.8v-6.25c0-3.767-0.823-6.427-2.47-7.98-1.653-1.547-4.797-2.337-9.43-2.37v0 16.6h-4.7v-35h4.7v14.25c2.467 0.067 3.933 0.133 4.4 0.2v0l7.05-14.45h5.1l-7.9 15.55c5.367 1.967 8.05 6.367 8.05 13.2zM30.4 3h4.4v11h4.25c3.7 0 6.35 0.55 7.95 1.65v0c1.433 0.967 2.343 2.123 2.73 3.47 0.38 1.353 0.57 3.13 0.57 5.33v0 13.55h-4.4v-13.5c0-0.6-0.017-1.11-0.05-1.53-0.033-0.413-0.15-0.947-0.35-1.6-0.2-0.647-0.483-1.18-0.85-1.6-0.367-0.413-0.9-0.78-1.6-1.1-0.7-0.313-1.55-0.47-2.55-0.47v0h-5.7v19.8h-4.4zM69.65 23.9v0 4.5c-1.267-0.967-2.817-1.45-4.65-1.45v0c-1.567 0-2.783 0.307-3.65 0.92-0.867 0.62-1.3 1.497-1.3 2.63v0c0 2.2 1.633 3.3 4.9 3.3v0h6.6v-9.55c0-4.033-1.967-6.05-5.9-6.05v0h-8v-4.2h8.25c3.233 0 5.717 0.8 7.45 2.4 1.733 1.6 2.6 3.9 2.6 6.9v0 14.7h-11.15c-2.833 0-5.083-0.633-6.75-1.9-1.667-1.267-2.5-3.117-2.5-5.55 0-2.433 0.883-4.283 2.65-5.55 1.767-1.267 3.983-1.9 6.65-1.9v0c1.5 0 3.1 0.267 4.8 0.8zM81.45 28.5v0-25.5h4.5v25.5c0 1.2 0.143 2.173 0.43 2.92 0.28 0.753 0.72 1.287 1.32 1.6 0.6 0.32 1.183 0.53 1.75 0.63 0.567 0.1 1.317 0.15 2.25 0.15v0 4.2c-3.733 0-6.373-0.717-7.92-2.15-1.553-1.433-2.33-3.883-2.33-7.35zM101.45 14v24h-4.4v-19.8h-4.1l2-4.2zM96.85 9v0c-0.433-0.567-0.65-1.183-0.65-1.85 0-0.667 0.217-1.277 0.65-1.83 0.433-0.547 1.1-0.82 2-0.82 0.9 0 1.567 0.273 2 0.82 0.433 0.553 0.65 1.163 0.65 1.83 0 0.667-0.217 1.273-0.65 1.82-0.433 0.553-1.1 0.83-2 0.83-0.9 0-1.567-0.267-2-0.8zM108.15 28.5v0-25.5h4.5v25.5c0 1.2 0.143 2.173 0.43 2.92 0.28 0.753 0.72 1.287 1.32 1.6 0.6 0.32 1.183 0.53 1.75 0.63 0.567 0.1 1.317 0.15 2.25 0.15v0 4.2c-3.733 0-6.373-0.717-7.92-2.15-1.553-1.433-2.33-3.883-2.33-7.35z" fill="black" fill-rule="nonzero" stroke="black" stroke-width="5" stroke-linecap="butt" stroke-linejoin="round" stroke-miterlimit="10" stroke-dasharray="" stroke-dashoffset="0" font-family="none" font-weight="none" font-size="none" text-anchor="none" style="mix-blend-mode: normal" opacity="1"></path></g></svg></g></svg></g></svg></g></svg></g></svg></g></svg></g></mask><g mask="url(#4ecfc22b-bca7-4a8f-83f2-a8ebc0140456)"><g><path d="M67.376 44.889v183.859h-28.239v-210.296h74.204c24.835 0 43.361 5.548 55.578 16.643 12.217 11.136 18.326 28.62 18.326 52.454v0 141.199h-28.24v-145.104c0-13.619-4.146-23.493-12.437-29.622-8.332-6.089-19.307-9.133-32.926-9.133v0zM356.383 191.195v0 37.553h-28.84v-37.553c0-22.632-4.947-38.614-14.841-47.947-9.934-9.293-28.821-14.04-56.66-14.24v0 99.74h-28.24v-210.296h28.24v85.621c14.821 0.401 23.633 0.801 26.437 1.201v0l42.36-86.822h30.643l-47.467 93.432c32.245 11.817 48.368 38.254 48.368 79.311z" fill="#000000" fill-rule="nonzero" stroke="none" stroke-width="1" stroke-linecap="butt" stroke-linejoin="miter" stroke-miterlimit="10" stroke-dasharray="" stroke-dashoffset="0" font-family="none" font-weight="none" font-size="none" text-anchor="none" style="mix-blend-mode: normal" data-fill-palette-color="tertiary"></path></g></g><g transform="matrix(1,0,0,1,38.60873684210526,37.08)"><svg viewBox="0 0 318.30252631578946 173.04" height="173.04" width="318.30252631578946"><g><svg viewBox="0 0 318.3025263157895 173.04000000000002" height="173.04" width="318.30252631578946"><g><svg viewBox="0 0 318.3025263157895 173.04000000000002" height="173.04000000000002" width="318.3025263157895"><g id="textblocktransform"><svg viewBox="0 0 318.3025263157895 173.04000000000002" height="173.04000000000002" width="318.3025263157895" id="textblock"><g><svg viewBox="0 0 318.3025263157895 173.04000000000002" height="173.04000000000002" width="318.3025263157895"><g transform="matrix(1,0,0,1,0,0)"><svg width="318.3025263157895" viewBox="0.4999999999999991 -38 145.79999999999998 79" height="173.04000000000002" data-palette-color="#0ebbb2"><svg></svg><svg></svg><g class="wordmark-text-0" data-fill-palette-color="primary" id="text-0"><path d="M8.2-30.6v30.6h-4.7v-35h12.35c4.133 0 7.217 0.923 9.25 2.77 2.033 1.853 3.05 4.763 3.05 8.73v0 23.5h-4.7v-24.15c0-2.267-0.69-3.91-2.07-4.93-1.387-1.013-3.213-1.52-5.48-1.52v0zM54.3-24v24h-8.65c-3.7 0-6.35-0.55-7.95-1.65v0c-1.433-0.967-2.34-2.127-2.72-3.48-0.387-1.347-0.58-3.12-0.58-5.32v0-13.55h4.4v13.5c0 0.6 0.017 1.11 0.05 1.53 0.033 0.413 0.15 0.943 0.35 1.59 0.2 0.653 0.483 1.187 0.85 1.6 0.367 0.42 0.9 0.79 1.6 1.11 0.7 0.313 1.55 0.47 2.55 0.47v0h5.7v-19.8zM60.8 0v-24h22.05c2.367 0 4.25 0.45 5.65 1.35v0c1.433 0.9 2.377 2.067 2.83 3.5 0.447 1.433 0.67 3.15 0.67 5.15v0 14h-4.4v-14c0-2.6-0.783-4.317-2.35-5.15v0c-0.8-0.433-2.417-0.65-4.85-0.65v0h-2.05v19.8h-4.4v-19.8h-8.75v19.8zM111.35-14.1v0 4.5c-1.267-0.967-2.817-1.45-4.65-1.45v0c-1.567 0-2.783 0.307-3.65 0.92-0.867 0.62-1.3 1.497-1.3 2.63v0c0 2.2 1.633 3.3 4.9 3.3v0h6.6v-9.55c0-4.033-1.967-6.05-5.9-6.05v0h-8v-4.2h8.25c3.233 0 5.717 0.8 7.45 2.4 1.733 1.6 2.6 3.9 2.6 6.9v0 14.7h-11.15c-2.833 0-5.083-0.633-6.75-1.9-1.667-1.267-2.5-3.117-2.5-5.55 0-2.433 0.883-4.283 2.65-5.55 1.767-1.267 3.983-1.9 6.65-1.9v0c1.5 0 3.1 0.267 4.8 0.8zM123.4 0v-24h8.65c3.7 0 6.35 0.55 7.95 1.65v0c1.433 0.967 2.343 2.123 2.73 3.47 0.38 1.353 0.57 3.13 0.57 5.33v0 13.55h-4.4v-13.5c0-0.6-0.017-1.11-0.05-1.53-0.033-0.413-0.15-0.947-0.35-1.6-0.2-0.647-0.483-1.18-0.85-1.6-0.367-0.413-0.9-0.78-1.6-1.1-0.7-0.313-1.55-0.47-2.55-0.47v0h-5.7v19.8z" fill="#000000" fill-rule="nonzero" stroke="none" stroke-width="1" stroke-linecap="butt" stroke-linejoin="miter" stroke-miterlimit="10" stroke-dasharray="" stroke-dashoffset="0" font-family="none" font-weight="none" font-size="none" text-anchor="none" style="mix-blend-mode: normal" data-fill-palette-color="primary" opacity="1"></path><path d="M24.9 31.75v0 6.25h-4.8v-6.25c0-3.767-0.823-6.427-2.47-7.98-1.653-1.547-4.797-2.337-9.43-2.37v0 16.6h-4.7v-35h4.7v14.25c2.467 0.067 3.933 0.133 4.4 0.2v0l7.05-14.45h5.1l-7.9 15.55c5.367 1.967 8.05 6.367 8.05 13.2zM30.4 3h4.4v11h4.25c3.7 0 6.35 0.55 7.95 1.65v0c1.433 0.967 2.343 2.123 2.73 3.47 0.38 1.353 0.57 3.13 0.57 5.33v0 13.55h-4.4v-13.5c0-0.6-0.017-1.11-0.05-1.53-0.033-0.413-0.15-0.947-0.35-1.6-0.2-0.647-0.483-1.18-0.85-1.6-0.367-0.413-0.9-0.78-1.6-1.1-0.7-0.313-1.55-0.47-2.55-0.47v0h-5.7v19.8h-4.4zM69.65 23.9v0 4.5c-1.267-0.967-2.817-1.45-4.65-1.45v0c-1.567 0-2.783 0.307-3.65 0.92-0.867 0.62-1.3 1.497-1.3 2.63v0c0 2.2 1.633 3.3 4.9 3.3v0h6.6v-9.55c0-4.033-1.967-6.05-5.9-6.05v0h-8v-4.2h8.25c3.233 0 5.717 0.8 7.45 2.4 1.733 1.6 2.6 3.9 2.6 6.9v0 14.7h-11.15c-2.833 0-5.083-0.633-6.75-1.9-1.667-1.267-2.5-3.117-2.5-5.55 0-2.433 0.883-4.283 2.65-5.55 1.767-1.267 3.983-1.9 6.65-1.9v0c1.5 0 3.1 0.267 4.8 0.8zM81.45 28.5v0-25.5h4.5v25.5c0 1.2 0.143 2.173 0.43 2.92 0.28 0.753 0.72 1.287 1.32 1.6 0.6 0.32 1.183 0.53 1.75 0.63 0.567 0.1 1.317 0.15 2.25 0.15v0 4.2c-3.733 0-6.373-0.717-7.92-2.15-1.553-1.433-2.33-3.883-2.33-7.35zM101.45 14v24h-4.4v-19.8h-4.1l2-4.2zM96.85 9v0c-0.433-0.567-0.65-1.183-0.65-1.85 0-0.667 0.217-1.277 0.65-1.83 0.433-0.547 1.1-0.82 2-0.82 0.9 0 1.567 0.273 2 0.82 0.433 0.553 0.65 1.163 0.65 1.83 0 0.667-0.217 1.273-0.65 1.82-0.433 0.553-1.1 0.83-2 0.83-0.9 0-1.567-0.267-2-0.8zM108.15 28.5v0-25.5h4.5v25.5c0 1.2 0.143 2.173 0.43 2.92 0.28 0.753 0.72 1.287 1.32 1.6 0.6 0.32 1.183 0.53 1.75 0.63 0.567 0.1 1.317 0.15 2.25 0.15v0 4.2c-3.733 0-6.373-0.717-7.92-2.15-1.553-1.433-2.33-3.883-2.33-7.35z" fill="#000000" fill-rule="nonzero" stroke="none" stroke-width="1" stroke-linecap="butt" stroke-linejoin="miter" stroke-miterlimit="10" stroke-dasharray="" stroke-dashoffset="0" font-family="none" font-weight="none" font-size="none" text-anchor="none" style="mix-blend-mode: normal" data-fill-palette-color="primary" opacity="1"></path></g></svg></g></svg></g></svg></g></svg></g></svg></g></svg></g></svg></g><defs></defs></svg><rect width="395.52" height="247.2" fill="none" stroke="none" visibility="hidden"></rect></g></svg></g></svg>